<svg xmlns="http://www.w3.org/2000/svg" width="1280" height="320" viewBox="0 0 1280 320" role="img" aria-labelledby="title desc">
  <title id="title">YouTube Channel Link Exporter</title>
  <desc id="desc">Agent Skill for exporting ordered YouTube channel video links from saved HTML files.</desc>
  <defs>
    <linearGradient id="bg" x1="0" y1="0" x2="1" y2="1">
      <stop offset="0" stop-color="#0d1117"/>
      <stop offset="1" stop-color="#161b22"/>
    </linearGradient>
    <linearGradient id="accent" x1="0" y1="0" x2="1" y2="0">
      <stop offset="0" stop-color="#ff0033"/>
      <stop offset="1" stop-color="#ff3355"/>
    </linearGradient>
  </defs>
  <rect width="1280" height="320" rx="28" fill="url(#bg)"/>
  <rect x="58" y="58" width="204" height="204" rx="48" fill="#0d1117" stroke="#30363d" stroke-width="3"/>
  <rect x="90" y="104" width="140" height="94" rx="24" fill="url(#accent)"/>
  <path d="M145 126 190 151 145 176Z" fill="#fff"/>
  <path d="M96 224h128" stroke="#8b949e" stroke-width="12" stroke-linecap="round"/>
  <circle cx="110" cy="224" r="8" fill="#f0f6fc"/>
  <circle cx="144" cy="224" r="8" fill="#f0f6fc"/>
  <circle cx="178" cy="224" r="8" fill="#f0f6fc"/>
  <text x="320" y="130" fill="#f0f6fc" font-family="Inter,Segoe UI,Arial,sans-serif" font-size="57" font-weight="700">YouTube Channel Link Exporter</text>
  <text x="322" y="184" fill="#8b949e" font-family="Inter,Segoe UI,Arial,sans-serif" font-size="27">Saved channel HTML → clean, ordered TXT link lists</text>
  <rect x="322" y="218" width="164" height="40" rx="20" fill="#21262d" stroke="#30363d"/>
  <text x="351" y="246" fill="#ff3355" font-family="Inter,Segoe UI,Arial,sans-serif" font-size="19" font-weight="600">AGENT SKILL</text>
  <rect x="504" y="218" width="176" height="40" rx="20" fill="#21262d" stroke="#30363d"/>
  <text x="533" y="246" fill="#58a6ff" font-family="Inter,Segoe UI,Arial,sans-serif" font-size="19" font-weight="600">LOCAL ONLY</text>
  <rect x="698" y="218" width="210" height="40" rx="20" fill="#21262d" stroke="#30363d"/>
  <text x="727" y="246" fill="#3fb950" font-family="Inter,Segoe UI,Arial,sans-serif" font-size="19" font-weight="600">ZERO DEPENDENCIES</text>
</svg>
